<svg width="25" height="24" viewBox="0 0 25 24" fill="none" xmlns="http://www.w3.org/2000/svg">
<path d="M6.056 18H18.944C19.8871 18 20.7916 17.6722 21.4585 17.0887C22.1254 16.5051 22.5 15.7137 22.5 14.8885V12.75C22.5 12.2859 22.2893 11.8408 21.9142 11.5126C21.5391 11.1844 21.0304 11 20.5 11C19.9696 11 19.4609 11.1844 19.0858 11.5126C18.7107 11.8408 18.5 12.2859 18.5 12.75V13.8C18.5 13.9857 18.4157 14.1637 18.2657 14.295C18.1157 14.4262 17.9122 14.5 17.7 14.5H7.3C7.08783 14.5 6.88434 14.4262 6.73431 14.295C6.58429 14.1637 6.5 13.9857 6.5 13.8V12.75C6.5 12.2859 6.28929 11.8408 5.91421 11.5126C5.53914 11.1844 5.03043 11 4.5 11C3.96957 11 3.46086 11.1844 3.08579 11.5126C2.71071 11.8408 2.5 12.2859 2.5 12.75V14.8885C2.5 15.7137 2.87465 16.5051 3.54153 17.0887C4.20841 17.6722 5.11289 18 6.056 18Z" stroke="black"/>
<path d="M20.5 11C20.5 9.884 20.5 9.3272 20.423 8.864C20.2687 7.93281 20.0753 7.20961 19.3282 6.4061C18.7056 5.73642 18.056 5.27758 17.28 5.0924C16.894 5 16.43 5 15.5 5H9.5C8.57 5 8.106 5 7.72 5.0924C6.94401 5.27758 6.23121 5.73475 5.67175 6.4061C5.1123 7.07745 4.73132 7.93281 4.577 8.864C4.5 9.3272 4.5 9.884 4.5 11" stroke="black"/>
<path d="M20.5 19V18M4.5 19V18" stroke="black" stroke-linecap="round"/>
</svg>
