<svg width="25" height="24" viewBox="0 0 25 24" fill="none" xmlns="http://www.w3.org/2000/svg">
<path d="M13.75 20V18C13.75 15.2386 11.5114 13 8.75 13C5.98858 13 3.75 15.2386 3.75 18V20H13.75ZM13.75 20H21.75V19C21.75 16.0545 19.5114 14 16.75 14C15.3367 14 14.0603 14.6255 13.1509 15.6311M11.75 7C11.75 8.65685 10.4069 10 8.75 10C7.09315 10 5.75 8.65685 5.75 7C5.75 5.34315 7.09315 4 8.75 4C10.4069 4 11.75 5.34315 11.75 7ZM18.75 9C18.75 10.1046 17.8546 11 16.75 11C15.6454 11 14.75 10.1046 14.75 9C14.75 7.89543 15.6454 7 16.75 7C17.8546 7 18.75 7.89543 18.75 9Z" stroke="black" stroke-linecap="round" stroke-linejoin="round"/>
</svg>
